<?xml version="1.0" encoding="UTF-8" standalone="no"?><!DOCTYPE svg PUBLIC "-//W3C//DTD SVG 1.1//EN" "http://www.w3.org/Graphics/SVG/1.1/DTD/svg11.dtd"><!-- Generated by graphviz version 2.39.20160930.0541 (20160930.0541) --><!-- Title: FlowChart Pages: 1 --><svg width="617pt" height="717pt" viewBox="0.00 0.00 617 717.07" xmlns="http://www.w3.org/2000/svg" xmlns:xlink="http://www.w3.org/1999/xlink"><defs><radialGradient id="g-terminator3z911d21q" cx="0.5" cy="0.5" fx="0.9" fy="0.9" r="1" x1="0%" x2="0%" y1="100%" y2="0%" spreadMethod="pad"><stop offset="0%" stop-color="#C32F06" stop-opacity="1"/><stop offset="100%" stop-color="#C32F06" stop-opacity="1"/></radialGradient><radialGradient id="g-decision3z911d21q" cx="0.5" cy="0.5" fx="0.9" fy="0.9" r="1" x1="0%" x2="0%" y1="100%" y2="0%" spreadMethod="pad"><stop offset="0%" stop-color="#d1461b" stop-opacity="1"/><stop offset="100%" stop-color="#d1461b" stop-opacity="1"/></radialGradient><radialGradient id="g-process3z911d21q" cx="0.5" cy="0.5" fx="0.9" fy="0.9" r="1" x1="0%" x2="0%" y1="100%" y2="0%" spreadMethod="pad"><stop offset="0%" stop-color="#3f51b5" stop-opacity="1"/><stop offset="100%" stop-color="#3f51b5" stop-opacity="1"/></radialGradient><radialGradient id="g-default3z911d21q" cx="0.5" cy="0.5" fx="0.9" fy="0.9" r="1" x1="0%" x2="0%" y1="100%" y2="0%" spreadMethod="pad"><stop offset="0%" stop-color="#005100" stop-opacity="1"/><stop offset="100%" stop-color="#005100" stop-opacity="1"/></radialGradient><radialGradient id="g-module3z911d21q" cx="0.5" cy="0.5" fx="0.9" fy="0.9" r="1" x1="0%" x2="0%" y1="100%" y2="0%" spreadMethod="pad"><stop offset="0%" stop-color="#009688" stop-opacity="1"/><stop offset="100%" stop-color="#009688" stop-opacity="1"/></radialGradient><radialGradient id="g-dataio3z911d21q" cx="0.5" cy="0.5" fx="0.9" fy="0.9" r="1" x1="0%" x2="0%" y1="100%" y2="0%" spreadMethod="pad"><stop offset="0%" stop-color="#607d8b" stop-opacity="1"/><stop offset="100%" stop-color="#607d8b" stop-opacity="1"/></radialGradient><radialGradient id="g-preparation3z911d21q" cx="0.5" cy="0.5" fx="0.9" fy="0.9" r="1" x1="0%" x2="0%" y1="100%" y2="0%" spreadMethod="pad"><stop offset="0%" stop-color="#607d8b" stop-opacity="1"/><stop offset="100%" stop-color="#607d8b" stop-opacity="1"/></radialGradient><radialGradient id="g-comment3z911d21q" cx="0.5" cy="0.5" fx="0.9" fy="0.9" r="1" x1="0%" x2="0%" y1="100%" y2="0%" spreadMethod="pad"><stop offset="0%" stop-color="#ffab40" stop-opacity="1"/><stop offset="100%" stop-color="#ffab40" stop-opacity="1"/></radialGradient><radialGradient id="g-manual3z911d21q" cx="0.5" cy="0.5" fx="0.9" fy="0.9" r="1" x1="0%" x2="0%" y1="100%" y2="0%" spreadMethod="pad"><stop offset="0%" stop-color="#673ab7" stop-opacity="1"/><stop offset="100%" stop-color="#673ab7" stop-opacity="1"/></radialGradient></defs><g id="page0,1_graph0" class="graph" transform="scale(0.706697 0.706697) rotate(0) translate(4 1003.6)"><title>FlowChart</title><!-- terminator_block_1 --><g id="node1" class="node"><title>terminator_block_1</title><ellipse fill="url(#g-terminator3z911d21q)" stroke="#C32F06" cx="743" cy="-981.6" rx="95.9041" ry="18"/><text text-anchor="start" x="669.5" y="-979.1" font-family="Open Sans, Noto Sans SC, Noto Sans TC, Noto Sans JP, Noto Sans KR" font-size="10.00" fill="white">generiereDienstplan(wuensche)</text></g><!-- process_block_2 --><g id="node2" class="node"><title>process_block_2</title><polygon fill="url(#g-process3z911d21q)" stroke="#3f51b5" points="837,-930.6 649,-930.6 649,-894.6 837,-894.6 837,-930.6"/><text text-anchor="start" x="656" y="-910.1" font-family="Open Sans, Noto Sans SC, Noto Sans TC, Noto Sans JP, Noto Sans KR" font-size="10.00" fill="white">berechne Arbeitsstunden des Monats</text></g><!-- terminator_block_1&#45;&gt;process_block_2 --><g id="edge1" class="edge"><title>terminator_block_1->process_block_2</title><path fill="none" stroke="#000000" d="M743,-963.471C743,-956.553 743,-948.493 743,-940.854"/><polygon fill="#000000" stroke="#000000" points="746.5,-940.847 743,-930.847 739.5,-940.847 746.5,-940.847"/></g><!-- process_block_3 --><g id="node3" class="node"><title>process_block_3</title><polygon fill="url(#g-process3z911d21q)" stroke="#3f51b5" points="835.5,-861.6 650.5,-861.6 650.5,-825.6 835.5,-825.6 835.5,-861.6"/><text text-anchor="start" x="657.5" y="-841.1" font-family="Open Sans, Noto Sans SC, Noto Sans TC, Noto Sans JP, Noto Sans KR" font-size="10.00" fill="white">trage Wünsche in den Dienstplan ein</text></g><!-- process_block_2&#45;&gt;process_block_3 --><g id="edge2" class="edge"><title>process_block_2->process_block_3</title><path fill="none" stroke="#000000" d="M743,-894.471C743,-887.553 743,-879.493 743,-871.854"/><polygon fill="#000000" stroke="#000000" points="746.5,-871.847 743,-861.847 739.5,-871.847 746.5,-871.847"/></g><!-- process_block_4 --><g id="node4" class="node"><title>process_block_4</title><polygon fill="url(#g-process3z911d21q)" stroke="#3f51b5" points="844,-792.6 642,-792.6 642,-756.6 844,-756.6 844,-792.6"/><text text-anchor="start" x="649" y="-772.1" font-family="Open Sans, Noto Sans SC, Noto Sans TC, Noto Sans JP, Noto Sans KR" font-size="10.00" fill="white">trage Arbeitsstunden der Mitarbeiter ein</text></g><!-- process_block_3&#45;&gt;process_block_4 --><g id="edge3" class="edge"><title>process_block_3->process_block_4</title><path fill="none" stroke="#000000" d="M743,-825.471C743,-818.553 743,-810.493 743,-802.854"/><polygon fill="#000000" stroke="#000000" points="746.5,-802.847 743,-792.847 739.5,-802.847 746.5,-802.847"/></g><!-- nop_block_5 --><g id="node5" class="node"><title>nop_block_5</title><ellipse fill="#000000" stroke="#000000" cx="743" cy="-721.8" rx="1.8" ry="1.8"/><text text-anchor="start" x="739.2" y="-727.6" font-family="Open Sans, Noto Sans SC, Noto Sans TC, Noto Sans JP, Noto Sans KR" font-weight="bold" font-size="10.00" fill="#000000"> </text></g><!-- process_block_4&#45;&gt;nop_block_5 --><g id="edge4" class="edge"><title>process_block_4->nop_block_5</title><path fill="none" stroke="#000000" d="M743,-756.429C743,-744.02 743,-728.915 743,-723.687"/></g><!-- ifs_block_6 --><g id="node6" class="node"><title>ifs_block_6</title><polygon fill="url(#g-decision3z911d21q)" stroke="#d1461b" points="446,-687 192.843,-669 446,-651 699.157,-669 446,-687"/><text text-anchor="start" x="302" y="-666.5" font-family="Open Sans, Noto Sans SC, Noto Sans TC, Noto Sans JP, Noto Sans KR" font-size="10.00" fill="white">Arbeitsstunden des Monats > Arbeitsstunden aller Mitarbeiter</text></g><!-- nop_block_5&#45;&gt;ifs_block_6 --><g id="edge15" class="edge"><title>nop_block_5->ifs_block_6</title><path fill="none" stroke="#000000" d="M741.103,-721.463C725.043,-718.608 610.402,-698.227 528.844,-683.728"/><polygon fill="#000000" stroke="#000000" points="529.03,-680.206 518.571,-681.902 527.804,-687.098 529.03,-680.206"/></g><!-- process_block_7 --><g id="node7" class="node"><title>process_block_7</title><polygon fill="url(#g-process3z911d21q)" stroke="#3f51b5" points="499.5,-608 160.5,-608 160.5,-572 499.5,-572 499.5,-608"/><text text-anchor="start" x="167.5" y="-587.5" font-family="Open Sans, Noto Sans SC, Noto Sans TC, Noto Sans JP, Noto Sans KR" font-size="10.00" fill="white">Sortiere alle Mitarbeiter nach der Anzahl vorhandener Arbeitsstunden</text></g><!-- ifs_block_6&#45;&gt;process_block_7 --><g id="edge5" class="edge"><title>ifs_block_6->process_block_7</title><path fill="none" stroke="#000000" d="M421.965,-652.631C405.466,-641.395 383.305,-626.302 364.871,-613.749"/><polygon fill="#000000" stroke="#000000" points="366.666,-610.737 356.431,-608 362.726,-616.522 366.666,-610.737"/><text text-anchor="start" x="395" y="-628" font-family="Open Sans, Noto Sans SC, Noto Sans TC, Noto Sans JP, Noto Sans KR" font-weight="bold" font-size="10.00" fill="#000000"> True </text><polyline fill="none" stroke="#000000" points="423,-624 379.249,-624 "/></g><!-- terminator_block_17 --><g id="node16" class="node"><title>terminator_block_17</title><ellipse fill="url(#g-terminator3z911d21q)" stroke="#C32F06" cx="609" cy="-590" rx="80.7939" ry="18"/><text text-anchor="start" x="548.5" y="-587.5" font-family="Open Sans, Noto Sans SC, Noto Sans TC, Noto Sans JP, Noto Sans KR" font-size="10.00" fill="white">gib den Dienstplan zurück</text></g><!-- ifs_block_6&#45;&gt;terminator_block_17 --><g id="edge18" class="edge"><title>ifs_block_6->terminator_block_17</title><path fill="none" stroke="#000000" d="M478.594,-653.203C503.609,-641.079 538.378,-624.228 565.725,-610.974"/><polygon fill="#000000" stroke="#000000" points="567.588,-613.96 575.06,-606.449 564.535,-607.661 567.588,-613.96"/><text text-anchor="start" x="538" y="-628" font-family="Open Sans, Noto Sans SC, Noto Sans TC, Noto Sans JP, Noto Sans KR" font-weight="bold" font-size="10.00" fill="#000000"> False </text><polyline fill="none" stroke="#000000" points="568,-624 538.437,-624 "/></g><!-- process_block_8 --><g id="node8" class="node"><title>process_block_8</title><polygon fill="url(#g-process3z911d21q)" stroke="#3f51b5" points="471.5,-539 188.5,-539 188.5,-503 471.5,-503 471.5,-539"/><text text-anchor="start" x="195.5" y="-518.5" font-family="Open Sans, Noto Sans SC, Noto Sans TC, Noto Sans JP, Noto Sans KR" font-size="10.00" fill="white">Überprüfe welche Mitarbeiter bereits eingetragen wurden</text></g><!-- process_block_7&#45;&gt;process_block_8 --><g id="edge6" class="edge"><title>process_block_7->process_block_8</title><path fill="none" stroke="#000000" d="M330,-571.871C330,-564.953 330,-556.893 330,-549.254"/><polygon fill="#000000" stroke="#000000" points="333.5,-549.247 330,-539.247 326.5,-549.247 333.5,-549.247"/></g><!-- process_block_9 --><g id="node9" class="node"><title>process_block_9</title><polygon fill="url(#g-process3z911d21q)" stroke="#3f51b5" points="616,-470 44,-470 44,-434 616,-434 616,-470"/><text text-anchor="start" x="51" y="-449.5" font-family="Open Sans, Noto Sans SC, Noto Sans TC, Noto Sans JP, Noto Sans KR" font-size="10.00" fill="white">Falls diese beim letzten durchlauf 3 oder mehr Tage hinter einander Eingetragen wurden, siehe einen Dienstwechsel vor</text></g><!-- process_block_8&#45;&gt;process_block_9 --><g id="edge7" class="edge"><title>process_block_8->process_block_9</title><path fill="none" stroke="#000000" d="M330,-502.871C330,-495.953 330,-487.893 330,-480.254"/><polygon fill="#000000" stroke="#000000" points="333.5,-480.247 330,-470.247 326.5,-480.247 333.5,-480.247"/></g><!-- process_block_10 --><g id="node10" class="node"><title>process_block_10</title><polygon fill="url(#g-process3z911d21q)" stroke="#3f51b5" points="660,-401 0,-401 0,-365 660,-365 660,-401"/><text text-anchor="start" x="7" y="-380.5" font-family="Open Sans, Noto Sans SC, Noto Sans TC, Noto Sans JP, Noto Sans KR" font-size="10.00" fill="white">Trage jeden Mitarbeiter der Reihe nach, soweit möglich, einmal in eine vorhandene Lücke ein. Überprüfe hier bei alle Rahmenbedingungen</text></g><!-- process_block_9&#45;&gt;process_block_10 --><g id="edge8" class="edge"><title>process_block_9->process_block_10</title><path fill="none" stroke="#000000" d="M330,-433.871C330,-426.953 330,-418.893 330,-411.254"/><polygon fill="#000000" stroke="#000000" points="333.5,-411.247 330,-401.247 326.5,-411.247 333.5,-411.247"/></g><!-- ifs_block_11 --><g id="node11" class="node"><title>ifs_block_11</title><polygon fill="url(#g-decision3z911d21q)" stroke="#d1461b" points="330,-332 51.2282,-314 330,-296 608.772,-314 330,-332"/><text text-anchor="start" x="170.5" y="-311.5" font-family="Open Sans, Noto Sans SC, Noto Sans TC, Noto Sans JP, Noto Sans KR" font-size="10.00" fill="white">Falls die Rahmenbedingungen keine weiteren Eintragungen zulassen</text></g><!-- process_block_10&#45;&gt;ifs_block_11 --><g id="edge9" class="edge"><title>process_block_10->ifs_block_11</title><path fill="none" stroke="#000000" d="M330,-364.871C330,-357.953 330,-349.893 330,-342.254"/><polygon fill="#000000" stroke="#000000" points="333.5,-342.247 330,-332.247 326.5,-342.247 333.5,-342.247"/></g><!-- process_block_12 --><g id="node12" class="node"><title>process_block_12</title><polygon fill="url(#g-process3z911d21q)" stroke="#3f51b5" points="683,-253 437,-253 437,-217 683,-217 683,-253"/><text text-anchor="start" x="444" y="-232.5" font-family="Open Sans, Noto Sans SC, Noto Sans TC, Noto Sans JP, Noto Sans KR" font-size="10.00" fill="white">Suche Möglichkeiten zum Tauschen der Schichten</text></g><!-- ifs_block_11&#45;&gt;process_block_12 --><g id="edge10" class="edge"><title>ifs_block_11->process_block_12</title><path fill="none" stroke="#000000" d="M374.346,-298.768C409.365,-286.74 458.655,-269.81 497.647,-256.417"/><polygon fill="#000000" stroke="#000000" points="499.003,-259.652 507.323,-253.093 496.729,-253.032 499.003,-259.652"/><text text-anchor="start" x="459" y="-273" font-family="Open Sans, Noto Sans SC, Noto Sans TC, Noto Sans JP, Noto Sans KR" font-weight="bold" font-size="10.00" fill="#000000"> True </text><polyline fill="none" stroke="#000000" points="487,-269 458.825,-269 "/></g><!-- process_block_15 --><g id="node15" class="node"><title>process_block_15</title><polygon fill="url(#g-process3z911d21q)" stroke="#3f51b5" points="692.5,-36 477.5,-36 477.5,-0 692.5,-0 692.5,-36"/><text text-anchor="start" x="484.5" y="-15.5" font-family="Open Sans, Noto Sans SC, Noto Sans TC, Noto Sans JP, Noto Sans KR" font-size="10.00" fill="white">Ergänze die Arbeitsstunden der Mitarbeiter</text></g><!-- ifs_block_11&#45;&gt;process_block_15 --><g id="edge14" class="edge"><title>ifs_block_11->process_block_15</title><path fill="none" stroke="#000000" d="M323.603,-296.377C318.429,-280.537 312,-256.522 312,-235 312,-235 312,-235 312,-87 312,-52.8578 393.274,-35.4315 467.132,-26.6443"/><polygon fill="#000000" stroke="#000000" points="467.957,-30.0729 477.495,-25.4608 467.162,-23.1181 467.957,-30.0729"/><text text-anchor="start" x="312" y="-164.5" font-family="Open Sans, Noto Sans SC, Noto Sans TC, Noto Sans JP, Noto Sans KR" font-weight="bold" font-size="10.00" fill="#000000"> False </text><polyline fill="none" stroke="#000000" points="342,-160.5 312,-160.5 "/></g><!-- ifs_block_13 --><g id="node13" class="node"><title>ifs_block_13</title><polygon fill="url(#g-decision3z911d21q)" stroke="#d1461b" points="585,-184 406.692,-166 585,-148 763.308,-166 585,-184"/><text text-anchor="start" x="486" y="-163.5" font-family="Open Sans, Noto Sans SC, Noto Sans TC, Noto Sans JP, Noto Sans KR" font-size="10.00" fill="white">Falls es keine Möglichkeit gibt zu Tauschen</text></g><!-- process_block_12&#45;&gt;ifs_block_13 --><g id="edge11" class="edge"><title>process_block_12->ifs_block_13</title><path fill="none" stroke="#000000" d="M566.568,-216.871C569.173,-209.684 572.224,-201.263 575.086,-193.364"/><polygon fill="#000000" stroke="#000000" points="578.446,-194.363 578.562,-183.769 571.865,-191.979 578.446,-194.363"/></g><!-- ifs_block_13&#45;&gt;nop_block_5 --><g id="edge17" class="edge"><title>ifs_block_13->nop_block_5</title><path fill="none" stroke="#000000" d="M638.492,-178.673C684.329,-191.138 743,-211.653 743,-235 743,-669 743,-669 743,-669 743,-682.922 743,-698.909 743,-709.61"/><polygon fill="#000000" stroke="#000000" points="739.5,-709.786 743,-719.786 746.5,-709.786 739.5,-709.786"/><text text-anchor="start" x="743" y="-450.5" font-family="Open Sans, Noto Sans SC, Noto Sans TC, Noto Sans JP, Noto Sans KR" font-weight="bold" font-size="10.00" fill="#000000"> False </text><polyline fill="none" stroke="#000000" points="773,-446.5 743,-446.5 "/></g><!-- process_block_14 --><g id="node14" class="node"><title>process_block_14</title><polygon fill="url(#g-process3z911d21q)" stroke="#3f51b5" points="814,-105 356,-105 356,-69 814,-69 814,-105"/><text text-anchor="start" x="363" y="-84.5" font-family="Open Sans, Noto Sans SC, Noto Sans TC, Noto Sans JP, Noto Sans KR" font-size="10.00" fill="white">Ignoriere die max. Arbeitsstunden Zahl der Mitarbeiter, und trage die möglichen Mitarbeiter ein</text></g><!-- ifs_block_13&#45;&gt;process_block_14 --><g id="edge12" class="edge"><title>ifs_block_13->process_block_14</title><path fill="none" stroke="#000000" d="M585,-147.677C585,-138.105 585,-126.178 585,-115.437"/><polygon fill="#000000" stroke="#000000" points="588.5,-115.223 585,-105.223 581.5,-115.223 588.5,-115.223"/><text text-anchor="start" x="585" y="-125" font-family="Open Sans, Noto Sans SC, Noto Sans TC, Noto Sans JP, Noto Sans KR" font-weight="bold" font-size="10.00" fill="#000000"> True </text><polyline fill="none" stroke="#000000" points="613,-121 585,-121 "/></g><!-- process_block_14&#45;&gt;process_block_15 --><g id="edge13" class="edge"><title>process_block_14->process_block_15</title><path fill="none" stroke="#000000" d="M585,-68.8711C585,-61.9534 585,-53.8926 585,-46.2543"/><polygon fill="#000000" stroke="#000000" points="588.5,-46.2474 585,-36.2474 581.5,-46.2475 588.5,-46.2474"/></g><!-- process_block_15&#45;&gt;nop_block_5 --><g id="edge16" class="edge"><title>process_block_15->nop_block_5</title><path fill="none" stroke="#000000" d="M692.505,-25.4608C768.901,-33.8292 858,-51.2519 858,-87 858,-669 858,-669 858,-669 858,-691.481 784.503,-711.762 755.022,-718.993"/><polygon fill="#000000" stroke="#000000" points="753.925,-715.656 744.996,-721.358 755.533,-722.469 753.925,-715.656"/></g></g></svg>