<?xml version="1.0" encoding="UTF-8" standalone="no"?><!DOCTYPE svg PUBLIC "-//W3C//DTD SVG 1.1//EN" "http://www.w3.org/Graphics/SVG/1.1/DTD/svg11.dtd"><!-- Generated by graphviz version 2.39.20160930.0541 (20160930.0541) --><!-- Title: FlowChart Pages: 1 --><svg width="617pt" height="632pt" viewBox="0.00 0.00 617 631.95" xmlns="http://www.w3.org/2000/svg" xmlns:xlink="http://www.w3.org/1999/xlink"><defs><radialGradient id="g-terminator46cpg649" cx="0.5" cy="0.5" fx="0.9" fy="0.9" r="1" x1="0%" x2="0%" y1="100%" y2="0%" spreadMethod="pad"><stop offset="0%" stop-color="#C32F06" stop-opacity="1"/><stop offset="100%" stop-color="#C32F06" stop-opacity="1"/></radialGradient><radialGradient id="g-decision46cpg649" cx="0.5" cy="0.5" fx="0.9" fy="0.9" r="1" x1="0%" x2="0%" y1="100%" y2="0%" spreadMethod="pad"><stop offset="0%" stop-color="#d1461b" stop-opacity="1"/><stop offset="100%" stop-color="#d1461b" stop-opacity="1"/></radialGradient><radialGradient id="g-process46cpg649" cx="0.5" cy="0.5" fx="0.9" fy="0.9" r="1" x1="0%" x2="0%" y1="100%" y2="0%" spreadMethod="pad"><stop offset="0%" stop-color="#3f51b5" stop-opacity="1"/><stop offset="100%" stop-color="#3f51b5" stop-opacity="1"/></radialGradient><radialGradient id="g-default46cpg649" cx="0.5" cy="0.5" fx="0.9" fy="0.9" r="1" x1="0%" x2="0%" y1="100%" y2="0%" spreadMethod="pad"><stop offset="0%" stop-color="#005100" stop-opacity="1"/><stop offset="100%" stop-color="#005100" stop-opacity="1"/></radialGradient><radialGradient id="g-module46cpg649" cx="0.5" cy="0.5" fx="0.9" fy="0.9" r="1" x1="0%" x2="0%" y1="100%" y2="0%" spreadMethod="pad"><stop offset="0%" stop-color="#009688" stop-opacity="1"/><stop offset="100%" stop-color="#009688" stop-opacity="1"/></radialGradient><radialGradient id="g-dataio46cpg649" cx="0.5" cy="0.5" fx="0.9" fy="0.9" r="1" x1="0%" x2="0%" y1="100%" y2="0%" spreadMethod="pad"><stop offset="0%" stop-color="#607d8b" stop-opacity="1"/><stop offset="100%" stop-color="#607d8b" stop-opacity="1"/></radialGradient><radialGradient id="g-preparation46cpg649" cx="0.5" cy="0.5" fx="0.9" fy="0.9" r="1" x1="0%" x2="0%" y1="100%" y2="0%" spreadMethod="pad"><stop offset="0%" stop-color="#607d8b" stop-opacity="1"/><stop offset="100%" stop-color="#607d8b" stop-opacity="1"/></radialGradient><radialGradient id="g-comment46cpg649" cx="0.5" cy="0.5" fx="0.9" fy="0.9" r="1" x1="0%" x2="0%" y1="100%" y2="0%" spreadMethod="pad"><stop offset="0%" stop-color="#ffab40" stop-opacity="1"/><stop offset="100%" stop-color="#ffab40" stop-opacity="1"/></radialGradient><radialGradient id="g-manual46cpg649" cx="0.5" cy="0.5" fx="0.9" fy="0.9" r="1" x1="0%" x2="0%" y1="100%" y2="0%" spreadMethod="pad"><stop offset="0%" stop-color="#673ab7" stop-opacity="1"/><stop offset="100%" stop-color="#673ab7" stop-opacity="1"/></radialGradient></defs><g id="page0,1_graph0" class="graph" transform="scale(0.567065 0.567065) rotate(0) translate(4 1101.6)"><title>FlowChart</title><!-- terminator_block_1 --><g id="node1" class="node"><title>terminator_block_1</title><ellipse fill="url(#g-terminator46cpg649)" stroke="#C32F06" cx="584" cy="-1079.6" rx="87.2444" ry="18"/><text text-anchor="start" x="518" y="-1077.1" font-family="Open Sans, Noto Sans SC, Noto Sans TC, Noto Sans JP, Noto Sans KR" font-size="10.00" fill="white">pruefeWuensche(wuensche)</text></g><!-- process_block_2 --><g id="node2" class="node"><title>process_block_2</title><polygon fill="url(#g-process46cpg649)" stroke="#3f51b5" points="611,-1028.6 557,-1028.6 557,-992.6 611,-992.6 611,-1028.6"/><text text-anchor="start" x="575.5" y="-1008.1" font-family="Open Sans, Noto Sans SC, Noto Sans TC, Noto Sans JP, Noto Sans KR" font-size="10.00" fill="white">int i</text></g><!-- terminator_block_1&#45;&gt;process_block_2 --><g id="edge1" class="edge"><title>terminator_block_1->process_block_2</title><path fill="none" stroke="#000000" d="M584,-1061.47C584,-1054.55 584,-1046.49 584,-1038.85"/><polygon fill="#000000" stroke="#000000" points="587.5,-1038.85 584,-1028.85 580.5,-1038.85 587.5,-1038.85"/></g><!-- nop_block_3 --><g id="node3" class="node"><title>nop_block_3</title><ellipse fill="#000000" stroke="#000000" cx="584" cy="-957.8" rx="1.8" ry="1.8"/><text text-anchor="start" x="580.2" y="-963.6" font-family="Open Sans, Noto Sans SC, Noto Sans TC, Noto Sans JP, Noto Sans KR" font-weight="bold" font-size="10.00" fill="#000000"> </text></g><!-- process_block_2&#45;&gt;nop_block_3 --><g id="edge2" class="edge"><title>process_block_2->nop_block_3</title><path fill="none" stroke="#000000" d="M584,-992.429C584,-980.02 584,-964.915 584,-959.687"/></g><!-- ifs_block_4 --><g id="node4" class="node"><title>ifs_block_4</title><polygon fill="url(#g-decision46cpg649)" stroke="#d1461b" points="489,-923 394.191,-905 489,-887 583.809,-905 489,-923"/><text text-anchor="start" x="440" y="-902.5" font-family="Open Sans, Noto Sans SC, Noto Sans TC, Noto Sans JP, Noto Sans KR" font-size="10.00" fill="white">i &lt;= wuensche.length</text></g><!-- nop_block_3&#45;&gt;ifs_block_4 --><g id="edge23" class="edge"><title>nop_block_3->ifs_block_4</title><path fill="none" stroke="#000000" d="M582.351,-956.884C575.185,-952.901 546.037,-936.701 522.194,-923.449"/><polygon fill="#000000" stroke="#000000" points="523.813,-920.345 513.372,-918.546 520.413,-926.463 523.813,-920.345"/></g><!-- process_block_5 --><g id="node5" class="node"><title>process_block_5</title><polygon fill="url(#g-process46cpg649)" stroke="#3f51b5" points="519,-844 465,-844 465,-808 519,-808 519,-844"/><text text-anchor="start" x="483.5" y="-823.5" font-family="Open Sans, Noto Sans SC, Noto Sans TC, Noto Sans JP, Noto Sans KR" font-size="10.00" fill="white">int j</text></g><!-- ifs_block_4&#45;&gt;process_block_5 --><g id="edge3" class="edge"><title>ifs_block_4->process_block_5</title><path fill="none" stroke="#000000" d="M489.681,-887.074C490.05,-877.345 490.515,-865.098 490.932,-854.129"/><polygon fill="#000000" stroke="#000000" points="494.429,-854.254 491.312,-844.129 487.435,-853.989 494.429,-854.254"/><text text-anchor="start" x="491" y="-864" font-family="Open Sans, Noto Sans SC, Noto Sans TC, Noto Sans JP, Noto Sans KR" font-weight="bold" font-size="10.00" fill="#000000"> True </text><polyline fill="none" stroke="#000000" points="519,-860 490.693,-860 "/></g><!-- process_block_23 --><g id="node22" class="node"><title>process_block_23</title><polygon fill="url(#g-process46cpg649)" stroke="#3f51b5" points="436,-844 0,-844 0,-808 436,-808 436,-844"/><text text-anchor="start" x="7" y="-823.5" font-family="Open Sans, Noto Sans SC, Noto Sans TC, Noto Sans JP, Noto Sans KR" font-size="10.00" fill="white">Bei allen Mitarbeitern die keinen Wunsch geäußert haben, das Rating um 1 inkrementieren</text></g><!-- ifs_block_4&#45;&gt;process_block_23 --><g id="edge26" class="edge"><title>ifs_block_4->process_block_23</title><path fill="none" stroke="#000000" d="M451.603,-894.098C409.999,-881.97 341.798,-862.089 289.8,-846.931"/><polygon fill="#000000" stroke="#000000" points="290.54,-843.501 279.96,-844.062 288.581,-850.221 290.54,-843.501"/><text text-anchor="start" x="370" y="-864" font-family="Open Sans, Noto Sans SC, Noto Sans TC, Noto Sans JP, Noto Sans KR" font-weight="bold" font-size="10.00" fill="#000000"> False </text><polyline fill="none" stroke="#000000" points="400,-860 336.566,-860 "/></g><!-- nop_block_6 --><g id="node6" class="node"><title>nop_block_6</title><ellipse fill="#000000" stroke="#000000" cx="492" cy="-757" rx="1.8" ry="1.8"/><text text-anchor="start" x="488.2" y="-762.8" font-family="Open Sans, Noto Sans SC, Noto Sans TC, Noto Sans JP, Noto Sans KR" font-weight="bold" font-size="10.00" fill="#000000"> </text></g><!-- process_block_5&#45;&gt;nop_block_6 --><g id="edge4" class="edge"><title>process_block_5->nop_block_6</title><path fill="none" stroke="#000000" d="M492,-807.871C492,-790.622 492,-766.265 492,-759.074"/></g><!-- ifs_block_7 --><g id="node7" class="node"><title>ifs_block_7</title><polygon fill="url(#g-decision46cpg649)" stroke="#d1461b" points="494,-706 404.181,-688 494,-670 583.819,-688 494,-706"/><text text-anchor="start" x="448" y="-685.5" font-family="Open Sans, Noto Sans SC, Noto Sans TC, Noto Sans JP, Noto Sans KR" font-size="10.00" fill="white">j &lt;= wunsche.length</text></g><!-- nop_block_6&#45;&gt;ifs_block_7 --><g id="edge18" class="edge"><title>nop_block_6->ifs_block_7</title><path fill="none" stroke="#000000" d="M492.058,-755.009C492.224,-749.264 492.722,-732.074 493.173,-716.544"/><polygon fill="#000000" stroke="#000000" points="496.681,-716.316 493.472,-706.219 489.684,-716.114 496.681,-716.316"/></g><!-- ifs_block_8 --><g id="node8" class="node"><title>ifs_block_8</title><polygon fill="url(#g-decision46cpg649)" stroke="#d1461b" points="451,-613.5 422.889,-595.5 451,-577.5 479.111,-595.5 451,-613.5"/><text text-anchor="start" x="442" y="-593" font-family="Open Sans, Noto Sans SC, Noto Sans TC, Noto Sans JP, Noto Sans KR" font-size="10.00" fill="white">i =! j</text></g><!-- ifs_block_7&#45;&gt;ifs_block_8 --><g id="edge5" class="edge"><title>ifs_block_7->ifs_block_8</title><path fill="none" stroke="#000000" d="M484.317,-671.609C481.197,-666.09 477.82,-659.847 475,-654 469.651,-642.911 464.382,-630.309 460.15,-619.65"/><polygon fill="#000000" stroke="#000000" points="463.335,-618.183 456.441,-610.137 456.813,-620.725 463.335,-618.183"/><text text-anchor="start" x="475" y="-647" font-family="Open Sans, Noto Sans SC, Noto Sans TC, Noto Sans JP, Noto Sans KR" font-weight="bold" font-size="10.00" fill="#000000"> True </text><polyline fill="none" stroke="#000000" points="503,-643 470.038,-643 "/></g><!-- process_block_22 --><g id="node21" class="node"><title>process_block_22</title><polygon fill="url(#g-process46cpg649)" stroke="#3f51b5" points="562,-613.5 508,-613.5 508,-577.5 562,-577.5 562,-613.5"/><text text-anchor="start" x="528.5" y="-593" font-family="Open Sans, Noto Sans SC, Noto Sans TC, Noto Sans JP, Noto Sans KR" font-size="10.00" fill="white">i++</text></g><!-- ifs_block_7&#45;&gt;process_block_22 --><g id="edge24" class="edge"><title>ifs_block_7->process_block_22</title><path fill="none" stroke="#000000" d="M501.33,-671.463C507.281,-658.036 515.8,-638.816 522.78,-623.069"/><polygon fill="#000000" stroke="#000000" points="526.038,-624.356 526.891,-613.796 519.638,-621.52 526.038,-624.356"/><text text-anchor="start" x="514" y="-647" font-family="Open Sans, Noto Sans SC, Noto Sans TC, Noto Sans JP, Noto Sans KR" font-weight="bold" font-size="10.00" fill="#000000"> False </text><polyline fill="none" stroke="#000000" points="544,-643 513.787,-643 "/></g><!-- ifs_block_9 --><g id="node9" class="node"><title>ifs_block_9</title><polygon fill="url(#g-decision46cpg649)" stroke="#d1461b" points="660,-521 484.187,-503 660,-485 835.813,-503 660,-521"/><text text-anchor="start" x="562.5" y="-500.5" font-family="Open Sans, Noto Sans SC, Noto Sans TC, Noto Sans JP, Noto Sans KR" font-size="10.00" fill="white">wuensche[i].datum == wuensche[j].datum</text></g><!-- ifs_block_8&#45;&gt;ifs_block_9 --><g id="edge6" class="edge"><title>ifs_block_8->ifs_block_9</title><path fill="none" stroke="#000000" d="M463.209,-584.823C471.259,-578.179 482.263,-569.822 493,-564 527.946,-545.051 569.996,-529.73 603.158,-519.182"/><polygon fill="#000000" stroke="#000000" points="604.203,-522.522 612.703,-516.198 602.115,-515.841 604.203,-522.522"/><text text-anchor="start" x="551" y="-541" font-family="Open Sans, Noto Sans SC, Noto Sans TC, Noto Sans JP, Noto Sans KR" font-weight="bold" font-size="10.00" fill="#000000"> True </text><polyline fill="none" stroke="#000000" points="579,-537 552.312,-537 "/></g><!-- process_block_21 --><g id="node20" class="node"><title>process_block_21</title><polygon fill="url(#g-process46cpg649)" stroke="#3f51b5" points="493,-36 439,-36 439,-0 493,-0 493,-36"/><text text-anchor="start" x="459.5" y="-15.5" font-family="Open Sans, Noto Sans SC, Noto Sans TC, Noto Sans JP, Noto Sans KR" font-size="10.00" fill="white">j++</text></g><!-- ifs_block_8&#45;&gt;process_block_21 --><g id="edge21" class="edge"><title>ifs_block_8->process_block_21</title><path fill="none" stroke="#000000" d="M444.691,-581.4C437.285,-563.533 426,-531.613 426,-503 426,-503 426,-503 426,-87 426,-71.5125 433.636,-56.3865 442.235,-44.2627"/><polygon fill="#000000" stroke="#000000" points="445.262,-46.0677 448.572,-36.0031 439.708,-41.8069 445.262,-46.0677"/><text text-anchor="start" x="426" y="-279" font-family="Open Sans, Noto Sans SC, Noto Sans TC, Noto Sans JP, Noto Sans KR" font-weight="bold" font-size="10.00" fill="#000000"> False </text><polyline fill="none" stroke="#000000" points="456,-275 426,-275 "/></g><!-- ifs_block_10 --><g id="node10" class="node"><title>ifs_block_10</title><polygon fill="url(#g-decision46cpg649)" stroke="#d1461b" points="814,-442 556.518,-424 814,-406 1071.48,-424 814,-442"/><text text-anchor="start" x="667.5" y="-421.5" font-family="Open Sans, Noto Sans SC, Noto Sans TC, Noto Sans JP, Noto Sans KR" font-size="10.00" fill="white">wuensche[i].mitarbeiter.rating &lt; wuensche[j].mitarbeiter.rating</text></g><!-- ifs_block_9&#45;&gt;ifs_block_10 --><g id="edge7" class="edge"><title>ifs_block_9->ifs_block_10</title><path fill="none" stroke="#000000" d="M689.329,-487.955C713.295,-475.661 747.418,-458.156 773.908,-444.567"/><polygon fill="#000000" stroke="#000000" points="775.631,-447.617 782.931,-439.938 772.436,-441.388 775.631,-447.617"/><text text-anchor="start" x="746" y="-462" font-family="Open Sans, Noto Sans SC, Noto Sans TC, Noto Sans JP, Noto Sans KR" font-weight="bold" font-size="10.00" fill="#000000"> True </text><polyline fill="none" stroke="#000000" points="774,-458 747.38,-458 "/></g><!-- process_block_19 --><g id="node19" class="node"><title>process_block_19</title><polygon fill="url(#g-process46cpg649)" stroke="#3f51b5" points="582,-390 446,-390 446,-354 582,-354 582,-390"/><text text-anchor="start" x="453" y="-369.5" font-family="Open Sans, Noto Sans SC, Noto Sans TC, Noto Sans JP, Noto Sans KR" font-size="10.00" fill="white">wuensche[i].erfuellt = true</text></g><!-- ifs_block_9&#45;&gt;process_block_19 --><g id="edge16" class="edge"><title>ifs_block_9->process_block_19</title><path fill="none" stroke="#000000" d="M617.027,-489.347C592.265,-479.581 562.151,-464.198 542,-442 531.414,-430.339 524.594,-414.175 520.337,-400.317"/><polygon fill="#000000" stroke="#000000" points="523.601,-398.988 517.563,-390.282 516.855,-400.854 523.601,-398.988"/><text text-anchor="start" x="574" y="-462" font-family="Open Sans, Noto Sans SC, Noto Sans TC, Noto Sans JP, Noto Sans KR" font-weight="bold" font-size="10.00" fill="#000000"> False </text><polyline fill="none" stroke="#000000" points="604,-458 558.742,-458 "/></g><!-- process_block_11 --><g id="node11" class="node"><title>process_block_11</title><polygon fill="url(#g-process46cpg649)" stroke="#3f51b5" points="882,-338 746,-338 746,-302 882,-302 882,-338"/><text text-anchor="start" x="753" y="-317.5" font-family="Open Sans, Noto Sans SC, Noto Sans TC, Noto Sans JP, Noto Sans KR" font-size="10.00" fill="white">wuensche[j].erfuellt = true</text></g><!-- ifs_block_10&#45;&gt;process_block_11 --><g id="edge8" class="edge"><title>ifs_block_10->process_block_11</title><path fill="none" stroke="#000000" d="M814,-405.885C814,-390.025 814,-366.717 814,-348.383"/><polygon fill="#000000" stroke="#000000" points="817.5,-348.257 814,-338.257 810.5,-348.257 817.5,-348.257"/><text text-anchor="start" x="814" y="-370.5" font-family="Open Sans, Noto Sans SC, Noto Sans TC, Noto Sans JP, Noto Sans KR" font-weight="bold" font-size="10.00" fill="#000000"> True </text><polyline fill="none" stroke="#000000" points="842,-366.5 814,-366.5 "/></g><!-- process_block_15 --><g id="node15" class="node"><title>process_block_15</title><polygon fill="url(#g-process46cpg649)" stroke="#3f51b5" points="715,-338 577,-338 577,-302 715,-302 715,-338"/><text text-anchor="start" x="584" y="-317.5" font-family="Open Sans, Noto Sans SC, Noto Sans TC, Noto Sans JP, Noto Sans KR" font-size="10.00" fill="white">wuensche[j].erfuellt = false</text></g><!-- ifs_block_10&#45;&gt;process_block_15 --><g id="edge12" class="edge"><title>ifs_block_10->process_block_15</title><path fill="none" stroke="#000000" d="M787.75,-407.75C759.829,-390.465 715.408,-362.967 683.738,-343.361"/><polygon fill="#000000" stroke="#000000" points="685.512,-340.344 675.167,-338.056 681.828,-346.296 685.512,-340.344"/><text text-anchor="start" x="754" y="-370.5" font-family="Open Sans, Noto Sans SC, Noto Sans TC, Noto Sans JP, Noto Sans KR" font-weight="bold" font-size="10.00" fill="#000000"> False </text><polyline fill="none" stroke="#000000" points="784,-366.5 719.729,-366.5 "/></g><!-- process_block_12 --><g id="node12" class="node"><title>process_block_12</title><polygon fill="url(#g-process46cpg649)" stroke="#3f51b5" points="883,-251 745,-251 745,-215 883,-215 883,-251"/><text text-anchor="start" x="752" y="-230.5" font-family="Open Sans, Noto Sans SC, Noto Sans TC, Noto Sans JP, Noto Sans KR" font-size="10.00" fill="white">wuensche[i].erfuellt = false</text></g><!-- process_block_11&#45;&gt;process_block_12 --><g id="edge9" class="edge"><title>process_block_11->process_block_12</title><path fill="none" stroke="#000000" d="M814,-301.974C814,-290.192 814,-274.561 814,-261.158"/><polygon fill="#000000" stroke="#000000" points="817.5,-261.003 814,-251.003 810.5,-261.003 817.5,-261.003"/></g><!-- process_block_13 --><g id="node13" class="node"><title>process_block_13</title><polygon fill="url(#g-process46cpg649)" stroke="#3f51b5" points="925,-174 759,-174 759,-138 925,-138 925,-174"/><text text-anchor="start" x="766" y="-153.5" font-family="Open Sans, Noto Sans SC, Noto Sans TC, Noto Sans JP, Noto Sans KR" font-size="10.00" fill="white">wuensche[j].mitarbeiter.rating - -</text></g><!-- process_block_12&#45;&gt;process_block_13 --><g id="edge10" class="edge"><title>process_block_12->process_block_13</title><path fill="none" stroke="#000000" d="M820.636,-214.752C824.018,-205.45 828.202,-193.944 831.969,-183.586"/><polygon fill="#000000" stroke="#000000" points="835.284,-184.711 835.412,-174.117 828.705,-182.319 835.284,-184.711"/></g><!-- process_block_14 --><g id="node14" class="node"><title>process_block_14</title><polygon fill="url(#g-process46cpg649)" stroke="#3f51b5" points="859.5,-105 688.5,-105 688.5,-69 859.5,-69 859.5,-105"/><text text-anchor="start" x="695.5" y="-84.5" font-family="Open Sans, Noto Sans SC, Noto Sans TC, Noto Sans JP, Noto Sans KR" font-size="10.00" fill="white">wuensche[i].mitarbeiter.rating + +</text></g><!-- process_block_13&#45;&gt;process_block_14 --><g id="edge11" class="edge"><title>process_block_13->process_block_14</title><path fill="none" stroke="#000000" d="M824.134,-137.871C816.464,-130.089 807.369,-120.86 799.045,-112.413"/><polygon fill="#000000" stroke="#000000" points="801.495,-109.913 791.983,-105.247 796.509,-114.827 801.495,-109.913"/></g><!-- process_block_14&#45;&gt;process_block_21 --><g id="edge19" class="edge"><title>process_block_14->process_block_21</title><path fill="none" stroke="#000000" d="M693.479,-68.9612C632.002,-55.1888 550.12,-36.8451 503.225,-26.3393"/><polygon fill="#000000" stroke="#000000" points="503.732,-22.8663 493.209,-24.0955 502.202,-29.697 503.732,-22.8663"/></g><!-- process_block_16 --><g id="node16" class="node"><title>process_block_16</title><polygon fill="url(#g-process46cpg649)" stroke="#3f51b5" points="714,-251 578,-251 578,-215 714,-215 714,-251"/><text text-anchor="start" x="585" y="-230.5" font-family="Open Sans, Noto Sans SC, Noto Sans TC, Noto Sans JP, Noto Sans KR" font-size="10.00" fill="white">wuensche[i].erfuellt = true</text></g><!-- process_block_15&#45;&gt;process_block_16 --><g id="edge13" class="edge"><title>process_block_15->process_block_16</title><path fill="none" stroke="#000000" d="M646,-301.974C646,-290.192 646,-274.561 646,-261.158"/><polygon fill="#000000" stroke="#000000" points="649.5,-261.003 646,-251.003 642.5,-261.003 649.5,-261.003"/></g><!-- process_block_17 --><g id="node17" class="node"><title>process_block_17</title><polygon fill="url(#g-process46cpg649)" stroke="#3f51b5" points="729.5,-174 558.5,-174 558.5,-138 729.5,-138 729.5,-174"/><text text-anchor="start" x="565.5" y="-153.5" font-family="Open Sans, Noto Sans SC, Noto Sans TC, Noto Sans JP, Noto Sans KR" font-size="10.00" fill="white">wuensche[j].mitarbeiter.rating + +</text></g><!-- process_block_16&#45;&gt;process_block_17 --><g id="edge14" class="edge"><title>process_block_16->process_block_17</title><path fill="none" stroke="#000000" d="M645.526,-214.752C645.289,-205.642 644.998,-194.417 644.733,-184.228"/><polygon fill="#000000" stroke="#000000" points="648.229,-184.023 644.471,-174.117 641.231,-184.204 648.229,-184.023"/></g><!-- process_block_18 --><g id="node18" class="node"><title>process_block_18</title><polygon fill="url(#g-process46cpg649)" stroke="#3f51b5" points="636,-105 470,-105 470,-69 636,-69 636,-105"/><text text-anchor="start" x="477" y="-84.5" font-family="Open Sans, Noto Sans SC, Noto Sans TC, Noto Sans JP, Noto Sans KR" font-size="10.00" fill="white">wuensche[i].mitarbeiter.rating - -</text></g><!-- process_block_17&#45;&gt;process_block_18 --><g id="edge15" class="edge"><title>process_block_17->process_block_18</title><path fill="none" stroke="#000000" d="M620.091,-137.871C609.328,-129.71 596.466,-119.958 584.897,-111.186"/><polygon fill="#000000" stroke="#000000" points="586.833,-108.261 576.749,-105.008 582.603,-113.839 586.833,-108.261"/></g><!-- process_block_18&#45;&gt;process_block_21 --><g id="edge20" class="edge"><title>process_block_18->process_block_21</title><path fill="none" stroke="#000000" d="M530.142,-68.8711C519.952,-60.7892 507.794,-51.1471 496.817,-42.4413"/><polygon fill="#000000" stroke="#000000" points="498.715,-39.4796 488.706,-36.0079 494.366,-44.9641 498.715,-39.4796"/></g><!-- process_block_19&#45;&gt;process_block_18 --><g id="edge17" class="edge"><title>process_block_19->process_block_18</title><path fill="none" stroke="#000000" d="M514,-353.771C514,-335.305 514,-305.917 514,-280.5 514,-280.5 514,-280.5 514,-156 514,-140.609 521.445,-125.495 529.829,-113.355"/><polygon fill="#000000" stroke="#000000" points="532.83,-115.185 536.007,-105.078 527.221,-110.998 532.83,-115.185"/></g><!-- process_block_21&#45;&gt;nop_block_6 --><g id="edge22" class="edge"><title>process_block_21->nop_block_6</title><path fill="none" stroke="#000000" d="M438.977,-23.2813C407.572,-31.1727 360,-49.3417 360,-87 360,-688 360,-688 360,-688 360,-741.851 447.35,-753.749 479.936,-756.314"/><polygon fill="#000000" stroke="#000000" points="479.939,-759.821 490.134,-756.937 480.366,-752.834 479.939,-759.821"/></g><!-- process_block_22&#45;&gt;nop_block_3 --><g id="edge25" class="edge"><title>process_block_22->nop_block_3</title><path fill="none" stroke="#000000" d="M559.922,-613.621C587.47,-634.609 628,-668.757 628,-688 628,-905 628,-905 628,-905 628,-925.882 607.439,-942.888 594.427,-951.559"/><polygon fill="#000000" stroke="#000000" points="592.592,-948.578 585.891,-956.784 596.247,-954.549 592.592,-948.578"/></g><!-- terminator_block_24 --><g id="node23" class="node"><title>terminator_block_24</title><ellipse fill="url(#g-terminator46cpg649)" stroke="#C32F06" cx="218" cy="-757" rx="74.3435" ry="18"/><text text-anchor="start" x="163" y="-754.5" font-family="Open Sans, Noto Sans SC, Noto Sans TC, Noto Sans JP, Noto Sans KR" font-size="10.00" fill="white">gib die Wünsche zurück</text></g><!-- process_block_23&#45;&gt;terminator_block_24 --><g id="edge27" class="edge"><title>process_block_23->terminator_block_24</title><path fill="none" stroke="#000000" d="M218,-807.871C218,-800.953 218,-792.893 218,-785.254"/><polygon fill="#000000" stroke="#000000" points="221.5,-785.247 218,-775.247 214.5,-785.247 221.5,-785.247"/></g><!-- comment_block_25 --><g id="node24" class="node"><title>comment_block_25</title><polygon fill="url(#g-comment46cpg649)" stroke="#ffab40" points="738.5,-627 591.5,-627 591.5,-564 744.5,-564 744.5,-621 738.5,-627"/><polyline fill="white" stroke="#ffab40" points="738.5,-627 738.5,-621 " stroke-width="0"/><polyline fill="white" stroke="#ffab40" points="744.5,-621 738.5,-621 " stroke-width="0"/><text text-anchor="start" x="596" y="-615" font-family="Open Sans, Noto Sans SC, Noto Sans TC, Noto Sans JP, Noto Sans KR" font-size="10.00" fill="black">  Hier werden alle Wünsche auf</text><text text-anchor="start" x="615" y="-604" font-family="Open Sans, Noto Sans SC, Noto Sans TC, Noto Sans JP, Noto Sans KR" font-size="10.00" fill="black">  Konflikte mit anderen</text><text text-anchor="start" x="595.5" y="-593" font-family="Open Sans, Noto Sans SC, Noto Sans TC, Noto Sans JP, Noto Sans KR" font-size="10.00" fill="black">  Wünschen geprüft und darauf</text><text text-anchor="start" x="609" y="-582" font-family="Open Sans, Noto Sans SC, Noto Sans TC, Noto Sans JP, Noto Sans KR" font-size="10.00" fill="black">  hin entschieden welcher</text><text text-anchor="start" x="619" y="-571" font-family="Open Sans, Noto Sans SC, Noto Sans TC, Noto Sans JP, Noto Sans KR" font-size="10.00" fill="black">  Wunsch erfüllt wird.</text></g><!-- comment_block_25&#45;&gt;ifs_block_9 --><g id="edge28" class="edge"><title>comment_block_25->ifs_block_9</title><path fill="none" stroke="#000000" stroke-dasharray="5,2" d="M665.269,-563.925C664.029,-549.585 662.607,-533.145 661.553,-520.959"/></g><!-- comment_block_26 --><g id="node25" class="node"><title>comment_block_26</title><polygon fill="url(#g-comment46cpg649)" stroke="#ffab40" points="1054,-259 912,-259 912,-207 1060,-207 1060,-253 1054,-259"/><polyline fill="white" stroke="#ffab40" points="1054,-259 1054,-253 " stroke-width="0"/><polyline fill="white" stroke="#ffab40" points="1060,-253 1054,-253 " stroke-width="0"/><text text-anchor="start" x="920" y="-247" font-family="Open Sans, Noto Sans SC, Noto Sans TC, Noto Sans JP, Noto Sans KR" font-size="10.00" fill="black">  das Rating des Mitarbeiters</text><text text-anchor="start" x="916" y="-236" font-family="Open Sans, Noto Sans SC, Noto Sans TC, Noto Sans JP, Noto Sans KR" font-size="10.00" fill="black">  dessen Wunsch erfüllt wurde</text><text text-anchor="start" x="918.5" y="-225" font-family="Open Sans, Noto Sans SC, Noto Sans TC, Noto Sans JP, Noto Sans KR" font-size="10.00" fill="black">  wird dekrementiert und das</text><text text-anchor="start" x="921" y="-214" font-family="Open Sans, Noto Sans SC, Noto Sans TC, Noto Sans JP, Noto Sans KR" font-size="10.00" fill="black">  des anderen inkrementiert</text></g><!-- comment_block_26&#45;&gt;process_block_13 --><g id="edge29" class="edge"><title>comment_block_26->process_block_13</title><path fill="none" stroke="#000000" stroke-dasharray="5,2" d="M937.248,-206.931C917.013,-196.111 894.034,-183.824 875.716,-174.029"/></g></g></svg>