<?xml version="1.0" encoding="UTF-8" standalone="no"?><!DOCTYPE svg PUBLIC "-//W3C//DTD SVG 1.1//EN" "http://www.w3.org/Graphics/SVG/1.1/DTD/svg11.dtd"><!-- Generated by graphviz version 2.39.20160930.0541 (20160930.0541) --><!-- Title: FlowChart Pages: 1 --><svg width="617pt" height="225pt" viewBox="0.00 0.00 617 225.16" xmlns="http://www.w3.org/2000/svg" xmlns:xlink="http://www.w3.org/1999/xlink"><defs><radialGradient id="g-terminator02t8370ab" cx="0.5" cy="0.5" fx="0.9" fy="0.9" r="1" x1="0%" x2="0%" y1="100%" y2="0%" spreadMethod="pad"><stop offset="0%" stop-color="#C32F06" stop-opacity="1"/><stop offset="100%" stop-color="#C32F06" stop-opacity="1"/></radialGradient><radialGradient id="g-decision02t8370ab" cx="0.5" cy="0.5" fx="0.9" fy="0.9" r="1" x1="0%" x2="0%" y1="100%" y2="0%" spreadMethod="pad"><stop offset="0%" stop-color="#d1461b" stop-opacity="1"/><stop offset="100%" stop-color="#d1461b" stop-opacity="1"/></radialGradient><radialGradient id="g-process02t8370ab" cx="0.5" cy="0.5" fx="0.9" fy="0.9" r="1" x1="0%" x2="0%" y1="100%" y2="0%" spreadMethod="pad"><stop offset="0%" stop-color="#3f51b5" stop-opacity="1"/><stop offset="100%" stop-color="#3f51b5" stop-opacity="1"/></radialGradient><radialGradient id="g-default02t8370ab" cx="0.5" cy="0.5" fx="0.9" fy="0.9" r="1" x1="0%" x2="0%" y1="100%" y2="0%" spreadMethod="pad"><stop offset="0%" stop-color="#005100" stop-opacity="1"/><stop offset="100%" stop-color="#005100" stop-opacity="1"/></radialGradient><radialGradient id="g-module02t8370ab" cx="0.5" cy="0.5" fx="0.9" fy="0.9" r="1" x1="0%" x2="0%" y1="100%" y2="0%" spreadMethod="pad"><stop offset="0%" stop-color="#009688" stop-opacity="1"/><stop offset="100%" stop-color="#009688" stop-opacity="1"/></radialGradient><radialGradient id="g-dataio02t8370ab" cx="0.5" cy="0.5" fx="0.9" fy="0.9" r="1" x1="0%" x2="0%" y1="100%" y2="0%" spreadMethod="pad"><stop offset="0%" stop-color="#607d8b" stop-opacity="1"/><stop offset="100%" stop-color="#607d8b" stop-opacity="1"/></radialGradient><radialGradient id="g-preparation02t8370ab" cx="0.5" cy="0.5" fx="0.9" fy="0.9" r="1" x1="0%" x2="0%" y1="100%" y2="0%" spreadMethod="pad"><stop offset="0%" stop-color="#607d8b" stop-opacity="1"/><stop offset="100%" stop-color="#607d8b" stop-opacity="1"/></radialGradient><radialGradient id="g-comment02t8370ab" cx="0.5" cy="0.5" fx="0.9" fy="0.9" r="1" x1="0%" x2="0%" y1="100%" y2="0%" spreadMethod="pad"><stop offset="0%" stop-color="#ffab40" stop-opacity="1"/><stop offset="100%" stop-color="#ffab40" stop-opacity="1"/></radialGradient><radialGradient id="g-manual02t8370ab" cx="0.5" cy="0.5" fx="0.9" fy="0.9" r="1" x1="0%" x2="0%" y1="100%" y2="0%" spreadMethod="pad"><stop offset="0%" stop-color="#673ab7" stop-opacity="1"/><stop offset="100%" stop-color="#673ab7" stop-opacity="1"/></radialGradient></defs><g id="page0,1_graph0" class="graph" transform="scale(0.519237 0.519237) rotate(0) translate(4 420)"><title>FlowChart</title><!-- terminator_block_1 --><g id="node1" class="node"><title>terminator_block_1</title><ellipse fill="url(#g-terminator02t8370ab)" stroke="#C32F06" cx="710.415" cy="-398" rx="105.241" ry="18"/><text text-anchor="start" x="628.915" y="-395.5" font-family="Open Sans, Noto Sans SC, Noto Sans TC, Noto Sans JP, Noto Sans KR" font-size="10.00" fill="white">findeErsatz(abwesenheitsMeldung)</text></g><!-- process_block_2 --><g id="node2" class="node"><title>process_block_2</title><polygon fill="url(#g-process02t8370ab)" stroke="#3f51b5" points="821.915,-340 598.915,-340 598.915,-304 821.915,-304 821.915,-340"/><text text-anchor="start" x="605.915" y="-319.5" font-family="Open Sans, Noto Sans SC, Noto Sans TC, Noto Sans JP, Noto Sans KR" font-size="10.00" fill="white">getDienstplan(abwesenheitsMeldung.datum)</text></g><!-- terminator_block_1&#45;&gt;process_block_2 --><g id="edge1" class="edge"><title>terminator_block_1->process_block_2</title><path fill="none" stroke="#000000" d="M710.415,-379.989C710.415,-371.157 710.415,-360.31 710.415,-350.396"/><polygon fill="#000000" stroke="#000000" points="713.915,-350.145 710.415,-340.145 706.915,-350.145 713.915,-350.145"/></g><!-- ifs_block_3 --><g id="node3" class="node"><title>ifs_block_3</title><polygon fill="url(#g-decision02t8370ab)" stroke="#d1461b" points="710.415,-264 320.7,-246 710.415,-228 1100.13,-246 710.415,-264"/><text text-anchor="start" x="484.415" y="-243.5" font-family="Open Sans, Noto Sans SC, Noto Sans TC, Noto Sans JP, Noto Sans KR" font-size="10.00" fill="white">Selektiere aus dem Dienstplan alle Mitarbeiter die an dem Datum der Abwesenheit nicht arbeiten</text></g><!-- process_block_2&#45;&gt;ifs_block_3 --><g id="edge2" class="edge"><title>process_block_2->ifs_block_3</title><path fill="none" stroke="#000000" d="M710.415,-303.989C710.415,-295.157 710.415,-284.31 710.415,-274.396"/><polygon fill="#000000" stroke="#000000" points="713.915,-274.145 710.415,-264.145 706.915,-274.145 713.915,-274.145"/></g><!-- ifs_block_4 --><g id="node4" class="node"><title>ifs_block_4</title><polygon fill="url(#g-decision02t8370ab)" stroke="#d1461b" points="710.415,-188 360.619,-170 710.415,-152 1060.21,-170 710.415,-188"/><text text-anchor="start" x="508.415" y="-167.5" font-family="Open Sans, Noto Sans SC, Noto Sans TC, Noto Sans JP, Noto Sans KR" font-size="10.00" fill="white">Prüfe diese Liste auf Mitarbeiter, die am Tag vor oder nach dem Tauschdatum Arbeiten</text></g><!-- ifs_block_3&#45;&gt;ifs_block_4 --><g id="edge3" class="edge"><title>ifs_block_3->ifs_block_4</title><path fill="none" stroke="#000000" d="M710.415,-227.989C710.415,-219.157 710.415,-208.31 710.415,-198.396"/><polygon fill="#000000" stroke="#000000" points="713.915,-198.145 710.415,-188.145 706.915,-198.145 713.915,-198.145"/><text text-anchor="start" x="682.415" y="-212.352" font-family="Open Sans, Noto Sans SC, Noto Sans TC, Noto Sans JP, Noto Sans KR" font-weight="bold" font-size="10.00" fill="#000000"> True </text></g><!-- ifs_block_5 --><g id="node5" class="node"><title>ifs_block_5</title><polygon fill="url(#g-decision02t8370ab)" stroke="#d1461b" points="415.415,-112 0.0849167,-94 415.415,-76 830.745,-94 415.415,-112"/><text text-anchor="start" x="173.915" y="-91.5" font-family="Open Sans, Noto Sans SC, Noto Sans TC, Noto Sans JP, Noto Sans KR" font-size="10.00" fill="white">Prüfe ob die Übernahme dieser Schicht durch die Mitarbeiter, gesetzliche Rahmenbedingungen verletzt.</text></g><!-- ifs_block_4&#45;&gt;ifs_block_5 --><g id="edge4" class="edge"><title>ifs_block_4->ifs_block_5</title><path fill="none" stroke="#000000" d="M652.133,-154.985C604.198,-142.636 536.128,-125.099 485.277,-111.998"/><polygon fill="#000000" stroke="#000000" points="485.904,-108.546 475.347,-109.44 484.158,-115.324 485.904,-108.546"/><text text-anchor="start" x="535.6" y="-136.177" font-family="Open Sans, Noto Sans SC, Noto Sans TC, Noto Sans JP, Noto Sans KR" font-weight="bold" font-size="10.00" fill="#000000"> True </text></g><!-- terminator_block_7 --><g id="node7" class="node"><title>terminator_block_7</title><ellipse fill="url(#g-terminator02t8370ab)" stroke="#C32F06" cx="1006.42" cy="-94" rx="164.474" ry="18"/><text text-anchor="start" x="874.915" y="-91.5" font-family="Open Sans, Noto Sans SC, Noto Sans TC, Noto Sans JP, Noto Sans KR" font-size="10.00" fill="white">Übermittel an alle anderen Mitarbeiter die Ersatzanfrage</text></g><!-- ifs_block_4&#45;&gt;terminator_block_7 --><g id="edge6" class="edge"><title>ifs_block_4->terminator_block_7</title><path fill="none" stroke="#000000" d="M768.895,-154.985C815.649,-142.98 881.495,-126.074 932.004,-113.106"/><polygon fill="#000000" stroke="#000000" points="933.075,-116.444 941.891,-110.567 931.335,-109.664 933.075,-116.444"/><text text-anchor="start" x="825.084" y="-136.855" font-family="Open Sans, Noto Sans SC, Noto Sans TC, Noto Sans JP, Noto Sans KR" font-weight="bold" font-size="10.00" fill="#000000"> False </text></g><!-- terminator_block_6 --><g id="node6" class="node"><title>terminator_block_6</title><ellipse fill="url(#g-terminator02t8370ab)" stroke="#C32F06" cx="415.415" cy="-18" rx="205.387" ry="18"/><text text-anchor="start" x="248.915" y="-15.5" font-family="Open Sans, Noto Sans SC, Noto Sans TC, Noto Sans JP, Noto Sans KR" font-size="10.00" fill="white">Übermittel allen Mitarbeitern wo dies nicht der Fall ist die Ersatzanfrage</text></g><!-- ifs_block_5&#45;&gt;terminator_block_6 --><g id="edge5" class="edge"><title>ifs_block_5->terminator_block_6</title><path fill="none" stroke="#000000" d="M415.415,-75.9891C415.415,-67.1566 415.415,-56.3099 415.415,-46.3965"/><polygon fill="#000000" stroke="#000000" points="418.915,-46.145 415.415,-36.145 411.915,-46.1451 418.915,-46.145"/><text text-anchor="start" x="385.415" y="-60.3523" font-family="Open Sans, Noto Sans SC, Noto Sans TC, Noto Sans JP, Noto Sans KR" font-weight="bold" font-size="10.00" fill="#000000"> False </text></g></g></svg>