<?xml version="1.0" encoding="UTF-8" standalone="no"?><!DOCTYPE svg PUBLIC "-//W3C//DTD SVG 1.1//EN" "http://www.w3.org/Graphics/SVG/1.1/DTD/svg11.dtd"><!-- Generated by graphviz version 2.39.20160930.0541 (20160930.0541) --><!-- Title: FlowChart Pages: 1 --><svg width="617pt" height="272pt" viewBox="0.00 0.00 617 271.58" xmlns="http://www.w3.org/2000/svg" xmlns:xlink="http://www.w3.org/1999/xlink"><defs><radialGradient id="g-terminatorcqccevwmh" cx="0.5" cy="0.5" fx="0.9" fy="0.9" r="1" x1="0%" x2="0%" y1="100%" y2="0%" spreadMethod="pad"><stop offset="0%" stop-color="#C32F06" stop-opacity="1"/><stop offset="100%" stop-color="#C32F06" stop-opacity="1"/></radialGradient><radialGradient id="g-decisioncqccevwmh" cx="0.5" cy="0.5" fx="0.9" fy="0.9" r="1" x1="0%" x2="0%" y1="100%" y2="0%" spreadMethod="pad"><stop offset="0%" stop-color="#d1461b" stop-opacity="1"/><stop offset="100%" stop-color="#d1461b" stop-opacity="1"/></radialGradient><radialGradient id="g-processcqccevwmh" cx="0.5" cy="0.5" fx="0.9" fy="0.9" r="1" x1="0%" x2="0%" y1="100%" y2="0%" spreadMethod="pad"><stop offset="0%" stop-color="#3f51b5" stop-opacity="1"/><stop offset="100%" stop-color="#3f51b5" stop-opacity="1"/></radialGradient><radialGradient id="g-defaultcqccevwmh" cx="0.5" cy="0.5" fx="0.9" fy="0.9" r="1" x1="0%" x2="0%" y1="100%" y2="0%" spreadMethod="pad"><stop offset="0%" stop-color="#005100" stop-opacity="1"/><stop offset="100%" stop-color="#005100" stop-opacity="1"/></radialGradient><radialGradient id="g-modulecqccevwmh" cx="0.5" cy="0.5" fx="0.9" fy="0.9" r="1" x1="0%" x2="0%" y1="100%" y2="0%" spreadMethod="pad"><stop offset="0%" stop-color="#009688" stop-opacity="1"/><stop offset="100%" stop-color="#009688" stop-opacity="1"/></radialGradient><radialGradient id="g-dataiocqccevwmh" cx="0.5" cy="0.5" fx="0.9" fy="0.9" r="1" x1="0%" x2="0%" y1="100%" y2="0%" spreadMethod="pad"><stop offset="0%" stop-color="#607d8b" stop-opacity="1"/><stop offset="100%" stop-color="#607d8b" stop-opacity="1"/></radialGradient><radialGradient id="g-preparationcqccevwmh" cx="0.5" cy="0.5" fx="0.9" fy="0.9" r="1" x1="0%" x2="0%" y1="100%" y2="0%" spreadMethod="pad"><stop offset="0%" stop-color="#607d8b" stop-opacity="1"/><stop offset="100%" stop-color="#607d8b" stop-opacity="1"/></radialGradient><radialGradient id="g-commentcqccevwmh" cx="0.5" cy="0.5" fx="0.9" fy="0.9" r="1" x1="0%" x2="0%" y1="100%" y2="0%" spreadMethod="pad"><stop offset="0%" stop-color="#ffab40" stop-opacity="1"/><stop offset="100%" stop-color="#ffab40" stop-opacity="1"/></radialGradient><radialGradient id="g-manualcqccevwmh" cx="0.5" cy="0.5" fx="0.9" fy="0.9" r="1" x1="0%" x2="0%" y1="100%" y2="0%" spreadMethod="pad"><stop offset="0%" stop-color="#673ab7" stop-opacity="1"/><stop offset="100%" stop-color="#673ab7" stop-opacity="1"/></radialGradient></defs><g id="page0,1_graph0" class="graph" transform="scale(0.516632 0.516632) rotate(0) translate(4 512)"><title>FlowChart</title><!-- terminator_block_1 --><g id="node1" class="node"><title>terminator_block_1</title><ellipse fill="url(#g-terminatorcqccevwmh)" stroke="#C32F06" cx="811.415" cy="-406" rx="108.805" ry="18"/><text text-anchor="start" x="726.915" y="-403.5" font-family="Open Sans, Noto Sans SC, Noto Sans TC, Noto Sans JP, Noto Sans KR" font-size="10.00" fill="white">sendeTauschanfrage(tauschanfrage)</text></g><!-- process_block_2 --><g id="node2" class="node"><title>process_block_2</title><polygon fill="url(#g-processcqccevwmh)" stroke="#3f51b5" points="804.415,-340 620.415,-340 620.415,-304 804.415,-304 804.415,-340"/><text text-anchor="start" x="627.415" y="-319.5" font-family="Open Sans, Noto Sans SC, Noto Sans TC, Noto Sans JP, Noto Sans KR" font-size="10.00" fill="white">getDienstplan(tauschanfrage.datum)</text></g><!-- terminator_block_1&#45;&gt;process_block_2 --><g id="edge1" class="edge"><title>terminator_block_1->process_block_2</title><path fill="none" stroke="#000000" d="M790.42,-388.186C776.21,-376.129 757.245,-360.038 741.574,-346.741"/><polygon fill="#000000" stroke="#000000" points="743.611,-343.879 733.721,-340.078 739.082,-349.217 743.611,-343.879"/></g><!-- ifs_block_3 --><g id="node3" class="node"><title>ifs_block_3</title><polygon fill="url(#g-decisioncqccevwmh)" stroke="#d1461b" points="712.415,-264 340.164,-246 712.415,-228 1084.67,-246 712.415,-264"/><text text-anchor="start" x="496.915" y="-243.5" font-family="Open Sans, Noto Sans SC, Noto Sans TC, Noto Sans JP, Noto Sans KR" font-size="10.00" fill="white">Selektiere aus dem Dienstplan alle Mitarbeiter die an dem Datum des Tauschs nicht arbeiten</text></g><!-- process_block_2&#45;&gt;ifs_block_3 --><g id="edge2" class="edge"><title>process_block_2->ifs_block_3</title><path fill="none" stroke="#000000" d="M712.415,-303.989C712.415,-295.157 712.415,-284.31 712.415,-274.396"/><polygon fill="#000000" stroke="#000000" points="715.915,-274.145 712.415,-264.145 708.915,-274.145 715.915,-274.145"/></g><!-- ifs_block_4 --><g id="node4" class="node"><title>ifs_block_4</title><polygon fill="url(#g-decisioncqccevwmh)" stroke="#d1461b" points="712.415,-188 362.619,-170 712.415,-152 1062.21,-170 712.415,-188"/><text text-anchor="start" x="510.415" y="-167.5" font-family="Open Sans, Noto Sans SC, Noto Sans TC, Noto Sans JP, Noto Sans KR" font-size="10.00" fill="white">Prüfe diese Liste auf Mitarbeiter, die am Tag vor oder nach dem Tauschdatum Arbeiten</text></g><!-- ifs_block_3&#45;&gt;ifs_block_4 --><g id="edge3" class="edge"><title>ifs_block_3->ifs_block_4</title><path fill="none" stroke="#000000" d="M712.415,-227.989C712.415,-219.157 712.415,-208.31 712.415,-198.396"/><polygon fill="#000000" stroke="#000000" points="715.915,-198.145 712.415,-188.145 708.915,-198.145 715.915,-198.145"/><text text-anchor="start" x="684.415" y="-212.352" font-family="Open Sans, Noto Sans SC, Noto Sans TC, Noto Sans JP, Noto Sans KR" font-weight="bold" font-size="10.00" fill="#000000"> True </text></g><!-- ifs_block_5 --><g id="node5" class="node"><title>ifs_block_5</title><polygon fill="url(#g-decisioncqccevwmh)" stroke="#d1461b" points="415.415,-112 0.0849167,-94 415.415,-76 830.745,-94 415.415,-112"/><text text-anchor="start" x="173.915" y="-91.5" font-family="Open Sans, Noto Sans SC, Noto Sans TC, Noto Sans JP, Noto Sans KR" font-size="10.00" fill="white">Prüfe ob die Übernahme dieser Schicht durch die Mitarbeiter, gesetzliche Rahmenbedingungen verletzt.</text></g><!-- ifs_block_4&#45;&gt;ifs_block_5 --><g id="edge4" class="edge"><title>ifs_block_4->ifs_block_5</title><path fill="none" stroke="#000000" d="M653.737,-154.985C605.478,-142.636 536.946,-125.099 485.751,-111.998"/><polygon fill="#000000" stroke="#000000" points="486.309,-108.529 475.754,-109.44 484.574,-115.31 486.309,-108.529"/><text text-anchor="start" x="536.605" y="-136.177" font-family="Open Sans, Noto Sans SC, Noto Sans TC, Noto Sans JP, Noto Sans KR" font-weight="bold" font-size="10.00" fill="#000000"> True </text></g><!-- terminator_block_7 --><g id="node7" class="node"><title>terminator_block_7</title><ellipse fill="url(#g-terminatorcqccevwmh)" stroke="#C32F06" cx="1009.42" cy="-94" rx="167.361" ry="18"/><text text-anchor="start" x="875.415" y="-91.5" font-family="Open Sans, Noto Sans SC, Noto Sans TC, Noto Sans JP, Noto Sans KR" font-size="10.00" fill="white">Übermittel an alle anderen Mitarbeiter die Tauschanfrage</text></g><!-- ifs_block_4&#45;&gt;terminator_block_7 --><g id="edge6" class="edge"><title>ifs_block_4->terminator_block_7</title><path fill="none" stroke="#000000" d="M771.093,-154.985C817.926,-143.001 883.85,-126.131 934.496,-113.171"/><polygon fill="#000000" stroke="#000000" points="935.591,-116.504 944.411,-110.634 933.855,-109.722 935.591,-116.504"/><text text-anchor="start" x="827.417" y="-136.895" font-family="Open Sans, Noto Sans SC, Noto Sans TC, Noto Sans JP, Noto Sans KR" font-weight="bold" font-size="10.00" fill="#000000"> False </text></g><!-- terminator_block_6 --><g id="node6" class="node"><title>terminator_block_6</title><ellipse fill="url(#g-terminatorcqccevwmh)" stroke="#C32F06" cx="415.415" cy="-18" rx="208.273" ry="18"/><text text-anchor="start" x="246.415" y="-15.5" font-family="Open Sans, Noto Sans SC, Noto Sans TC, Noto Sans JP, Noto Sans KR" font-size="10.00" fill="white">Übermittel allen Mitarbeitern wo dies nicht der Fall ist die Tauschanfrage</text></g><!-- ifs_block_5&#45;&gt;terminator_block_6 --><g id="edge5" class="edge"><title>ifs_block_5->terminator_block_6</title><path fill="none" stroke="#000000" d="M415.415,-75.9891C415.415,-67.1566 415.415,-56.3099 415.415,-46.3965"/><polygon fill="#000000" stroke="#000000" points="418.915,-46.145 415.415,-36.145 411.915,-46.1451 418.915,-46.145"/><text text-anchor="start" x="385.415" y="-60.3523" font-family="Open Sans, Noto Sans SC, Noto Sans TC, Noto Sans JP, Noto Sans KR" font-weight="bold" font-size="10.00" fill="#000000"> False </text></g><!-- comment_block_8 --><g id="node8" class="node"><title>comment_block_8</title><polygon fill="url(#g-commentcqccevwmh)" stroke="#ffab40" points="863.415,-508 753.415,-508 753.415,-472 869.415,-472 869.415,-502 863.415,-508"/><polyline fill="white" stroke="#ffab40" points="863.415,-508 863.415,-502 " stroke-width="0"/><polyline fill="white" stroke="#ffab40" points="869.415,-502 863.415,-502 " stroke-width="0"/><text text-anchor="start" x="757.415" y="-487.5" font-family="Open Sans, Noto Sans SC, Noto Sans TC, Noto Sans JP, Noto Sans KR" font-size="10.00" fill="black">  Dienstnutzer Funktion</text></g><!-- comment_block_8&#45;&gt;terminator_block_1 --><g id="edge7" class="edge"><title>comment_block_8->terminator_block_1</title><path fill="none" stroke="#000000" stroke-dasharray="5,2" d="M811.415,-471.773C811.415,-457.684 811.415,-438.272 811.415,-424.191"/></g><!-- comment_block_9 --><g id="node9" class="node"><title>comment_block_9</title><polygon fill="url(#g-commentcqccevwmh)" stroke="#ffab40" points="685.915,-432 536.915,-432 536.915,-380 691.915,-380 691.915,-426 685.915,-432"/><polyline fill="white" stroke="#ffab40" points="685.915,-432 685.915,-426 " stroke-width="0"/><polyline fill="white" stroke="#ffab40" points="691.915,-426 685.915,-426 " stroke-width="0"/><text text-anchor="start" x="540.915" y="-420" font-family="Open Sans, Noto Sans SC, Noto Sans TC, Noto Sans JP, Noto Sans KR" font-size="10.00" fill="black">  Über den Paramenter wird mit</text><text text-anchor="start" x="546.915" y="-409" font-family="Open Sans, Noto Sans SC, Noto Sans TC, Noto Sans JP, Noto Sans KR" font-size="10.00" fill="black">  Hilfe des Monats und Jahres</text><text text-anchor="start" x="548.415" y="-398" font-family="Open Sans, Noto Sans SC, Noto Sans TC, Noto Sans JP, Noto Sans KR" font-size="10.00" fill="black">  des Datums der Dienstplan</text><text text-anchor="start" x="585.415" y="-387" font-family="Open Sans, Noto Sans SC, Noto Sans TC, Noto Sans JP, Noto Sans KR" font-size="10.00" fill="black">  identifiziert</text></g><!-- comment_block_9&#45;&gt;process_block_2 --><g id="edge8" class="edge"><title>comment_block_9->process_block_2</title><path fill="none" stroke="#000000" stroke-dasharray="5,2" d="M644.886,-379.882C659.944,-366.975 677.74,-351.721 691.282,-340.114"/></g></g></svg>